<svg width="24" height="24" viewBox="0 0 24 24" fill="none" xmlns="http://www.w3.org/2000/svg">
<path fill-rule="evenodd" clip-rule="evenodd" d="M14.2802 2.79165L20.0402 6.82165C21.1402 7.59165 22.0102 9.25165 22.0102 10.6016V17.3816C22.0102 19.9316 19.9402 22.0016 17.3902 22.0016H6.61023C4.06023 22.0016 1.99023 19.9216 1.99023 17.3716V10.4716C1.99023 9.21165 2.78023 7.61165 3.78023 6.83165L8.79023 2.92165C10.3002 1.75165 12.7102 1.69165 14.2802 2.79165ZM11 14C10.4477 14 10 14.4477 10 15V19C10 19.5523 10.4477 20 11 20H13C13.5523 20 14 19.5523 14 19V15C14 14.4477 13.5523 14 13 14H11Z" fill="#484849"/>
</svg>
