<svg width="26" height="19" viewBox="0 0 26 19" fill="none" xmlns="http://www.w3.org/2000/svg">
<path fill-rule="evenodd" clip-rule="evenodd" d="M0.95 0C0.698044 0 0.456408 0.100089 0.278249 0.278249C0.100089 0.456408 0 0.698044 0 0.95V2.85C0 3.10196 0.100089 3.34359 0.278249 3.52175C0.456408 3.69991 0.698044 3.8 0.95 3.8H2.85C3.10196 3.8 3.34359 3.69991 3.52175 3.52175C3.69991 3.34359 3.8 3.10196 3.8 2.85V0.95C3.8 0.698044 3.69991 0.456408 3.52175 0.278249C3.34359 0.100089 3.10196 0 2.85 0H0.95ZM2.85 0.95H0.95V2.85H2.85V0.95Z" fill="#263238"/>
<path d="M6.6499 1.9002C6.6499 1.64824 6.74999 1.4066 6.92815 1.22844C7.10631 1.05028 7.34795 0.950195 7.5999 0.950195H24.6999C24.9519 0.950195 25.1935 1.05028 25.3717 1.22844C25.5498 1.4066 25.6499 1.64824 25.6499 1.9002C25.6499 2.15215 25.5498 2.39379 25.3717 2.57195C25.1935 2.75011 24.9519 2.8502 24.6999 2.8502H7.5999C7.34795 2.8502 7.10631 2.75011 6.92815 2.57195C6.74999 2.39379 6.6499 2.15215 6.6499 1.9002ZM7.5999 8.5502C7.34795 8.5502 7.10631 8.65029 6.92815 8.82844C6.74999 9.0066 6.6499 9.24824 6.6499 9.5002C6.6499 9.75215 6.74999 9.99379 6.92815 10.1719C7.10631 10.3501 7.34795 10.4502 7.5999 10.4502H24.6999C24.9519 10.4502 25.1935 10.3501 25.3717 10.1719C25.5498 9.99379 25.6499 9.75215 25.6499 9.5002C25.6499 9.24824 25.5498 9.0066 25.3717 8.82844C25.1935 8.65029 24.9519 8.5502 24.6999 8.5502H7.5999ZM7.5999 16.1502C7.34795 16.1502 7.10631 16.2503 6.92815 16.4284C6.74999 16.6066 6.6499 16.8482 6.6499 17.1002C6.6499 17.3522 6.74999 17.5938 6.92815 17.7719C7.10631 17.9501 7.34795 18.0502 7.5999 18.0502H24.6999C24.9519 18.0502 25.1935 17.9501 25.3717 17.7719C25.5498 17.5938 25.6499 17.3522 25.6499 17.1002C25.6499 16.8482 25.5498 16.6066 25.3717 16.4284C25.1935 16.2503 24.9519 16.1502 24.6999 16.1502H7.5999Z" fill="#263238"/>
<path fill-rule="evenodd" clip-rule="evenodd" d="M0 8.54961C0 8.29765 0.100089 8.05602 0.278249 7.87786C0.456408 7.6997 0.698044 7.59961 0.95 7.59961H2.85C3.10196 7.59961 3.34359 7.6997 3.52175 7.87786C3.69991 8.05602 3.8 8.29765 3.8 8.54961V10.4496C3.8 10.7016 3.69991 10.9432 3.52175 11.1214C3.34359 11.2995 3.10196 11.3996 2.85 11.3996H0.95C0.698044 11.3996 0.456408 11.2995 0.278249 11.1214C0.100089 10.9432 0 10.7016 0 10.4496V8.54961ZM0.95 8.54961H2.85V10.4496H0.95V8.54961ZM0.95 15.1996C0.698044 15.1996 0.456408 15.2997 0.278249 15.4779C0.100089 15.656 0 15.8977 0 16.1496V18.0496C0 18.3016 0.100089 18.5432 0.278249 18.7214C0.456408 18.8995 0.698044 18.9996 0.95 18.9996H2.85C3.10196 18.9996 3.34359 18.8995 3.52175 18.7214C3.69991 18.5432 3.8 18.3016 3.8 18.0496V16.1496C3.8 15.8977 3.69991 15.656 3.52175 15.4779C3.34359 15.2997 3.10196 15.1996 2.85 15.1996H0.95ZM2.85 16.1496H0.95V18.0496H2.85V16.1496Z" fill="#263238"/>
</svg>
