<svg width="46" height="46" viewBox="0 0 46 46" fill="none" xmlns="http://www.w3.org/2000/svg">
<path d="M25.3634 17.8915L18.3308 12.598V33.402L25.3634 28.1085L32.1654 23L25.3634 17.8915ZM25.3634 17.8915L18.3308 12.598V33.402L25.3634 28.1085L32.1654 23L25.3634 17.8915ZM25.3634 17.8915L18.3308 12.598V33.402L25.3634 28.1085L32.1654 23L25.3634 17.8915ZM20.6366 4.66935V0C16.002 0.462312 11.7825 2.31156 8.36992 5.10854L11.6441 8.41407C14.2495 6.37502 17.3569 5.08101 20.6366 4.66935ZM8.39298 11.6734L5.09574 8.39095C2.22463 11.8966 0.451713 16.1752 0 20.6884H4.65764C5.07268 17.3136 6.41003 14.2392 8.39298 11.6734ZM4.65764 25.3116H0C0.461153 29.9578 2.30576 34.1879 5.09574 37.609L8.39298 34.3035C6.35552 31.7024 5.06408 28.5936 4.65764 25.3116ZM8.36992 40.8915C11.8691 43.766 16.1357 45.5428 20.6366 46V41.3307C17.3569 40.919 14.2495 39.625 11.6441 37.5859L8.36992 40.8915ZM46 23C46 34.9276 36.9614 44.7749 25.3634 46V41.3307C34.402 40.1286 41.3885 32.3618 41.3885 23C41.3885 13.6382 34.402 5.87136 25.3634 4.66935V0C36.9614 1.22513 46 11.0724 46 23Z" fill="#6A2F85"/>
</svg>
