<svg width="293" height="294" viewBox="0 0 293 294" fill="none" xmlns="http://www.w3.org/2000/svg">
<path d="M24.3105 177.578V190.631H37.406V177.578V164.524H24.3105V177.578Z" fill="#263238"/>
<path d="M37.3849 99.2588H24.3105V112.312H37.3849V99.2588Z" fill="#263238"/>
<path d="M118.196 242.99H105.122V256.043H118.196V242.99Z" fill="#263238"/>
<path d="M37.406 125.365V138.418H24.3105V151.471H37.406V164.524H50.4803H63.5546V177.577H76.629V164.524H89.7033V151.471V138.418H76.629V151.471H63.5546H50.4803V138.418V125.365V112.312H37.406V125.365Z" fill="#263238"/>
<path d="M63.5548 99.2588H50.4805V112.312H63.5548H76.6291V99.2588H63.5548Z" fill="#263238"/>
<path d="M122.4 204.21H129.433V191.157H122.4H115.366V204.21H122.4Z" fill="#263238"/>
<path d="M89.7042 112.312H76.6299V125.365H89.7042V112.312Z" fill="#263238"/>
<path d="M181.245 164.524H168.171V177.578H181.245V164.524Z" fill="#263238"/>
<path d="M194.319 20.9189H181.245V33.972H194.319V20.9189Z" fill="#263238"/>
<path d="M115.853 125.365V112.312H128.927V99.2587H115.853V86.1846H102.778V99.2587H89.7041V112.312H102.778V125.365V138.418V151.471V164.524H115.853V151.471V138.418H128.927V125.365H115.853Z" fill="#263238"/>
<path d="M181.245 255.916H194.32V242.863H181.245H168.171V255.916H181.245Z" fill="#263238"/>
<path d="M168.171 20.9189H155.097V33.972H168.171V20.9189Z" fill="#263238"/>
<path d="M164.897 125.365V112.312H151.822V99.2588H138.748V112.312V125.365H125.674V138.418H138.748H151.822V125.365H164.897Z" fill="#263238"/>
<path d="M238.695 99.2588H225.621V112.312H238.695V99.2588Z" fill="#263238"/>
<path d="M103.158 164.524H90.084V177.578H103.158V164.524Z" fill="#263238"/>
<path d="M155.097 86.184V73.1309H168.171V60.0778H181.245H194.319V47.0248H181.245V33.9717H168.171V47.0248H155.097V60.0778H142.022V73.1309H128.927V86.184H142.022H155.097Z" fill="#263238"/>
<path d="M155.097 177.577V164.524H168.171V151.471H155.097H142.022V164.524H128.927V177.577H142.022H155.097Z" fill="#263238"/>
<path d="M194.32 229.79V216.737H181.245H168.171V203.684H155.097V216.737H142.022V229.79H128.927H115.853V242.864H128.927H142.022H155.097V229.79H168.171V242.864H181.245V229.79H194.32Z" fill="#263238"/>
<path d="M142.022 33.972V20.9189H128.927H115.853V33.972H102.778V47.0251H115.853H128.927V33.972H142.022Z" fill="#263238"/>
<path d="M142.001 47.0254H128.927V60.0785H142.001V47.0254Z" fill="#263238"/>
<path d="M174.697 99.2581H161.623V112.311V125.364V138.417H174.697H187.793V125.364H174.697V112.311H187.793V99.2581H200.867V86.1839H187.793V73.1309H174.697V86.1839V99.2581Z" fill="#263238"/>
<path d="M128.927 60.0781H115.853V73.1312H128.927V60.0781Z" fill="#263238"/>
<path d="M168.171 190.63V203.704H181.245H194.32V190.63H207.394H220.468V177.577H207.394H194.32H181.245V190.63H168.171Z" fill="#263238"/>
<path d="M238.695 138.418H225.621V151.471H238.695V138.418Z" fill="#263238"/>
<path d="M194.319 151.471H181.245V164.524H194.319V151.471Z" fill="#263238"/>
<path d="M227.016 112.312H213.942H200.867V125.365H213.942V138.418H227.016V125.365V112.312Z" fill="#263238"/>
<path d="M220.468 151.471H207.394V164.524H220.468V151.471Z" fill="#263238"/>
<path d="M76.6291 230.043H115.873V177.577H63.3013V190.651H50.4805V203.704H63.3013V216.757H50.4805V229.811H63.3013V230.064H63.5548V242.885H50.4805V255.938V268.991H63.5548V255.938H76.6291V242.885V230.043ZM105.798 187.615V220.258H73.1229V187.615H105.798Z" fill="#263238"/>
<path d="M246.638 177.578H259.712V164.524H246.638H233.542H220.468V177.578H233.542H246.638Z" fill="#263238"/>
<path d="M246.638 125.365H259.712V112.312V99.2588H246.638V112.312V125.365Z" fill="#263238"/>
<path d="M142.508 191.157H129.434V204.21V217.263H142.508V204.21V191.157Z" fill="#263238"/>
<path d="M272.786 177.577H259.712V190.63H272.786V177.577Z" fill="#263238"/>
<path d="M272.786 151.471V138.418H259.712V151.471V164.524H272.786V151.471Z" fill="#263238"/>
<path d="M37.406 242.863H24.3105V255.916V268.969H37.406V255.916V242.863Z" fill="#263238"/>
<path d="M272.786 86.1843V20.9189H207.394V86.2054H272.786V86.1843ZM217.215 76.3998V30.7035H262.986V76.3998H217.215Z" fill="#263238"/>
<path d="M253.164 40.4883H227.016V66.5944H253.164V40.4883Z" fill="#263238"/>
<path d="M272.786 203.704H207.394V268.991H272.786V203.704ZM217.215 259.185V213.489H262.986V259.185H217.215Z" fill="#263238"/>
<path d="M253.164 223.273H227.016V249.38H253.164V223.273Z" fill="#263238"/>
<path d="M24.1631 20.9189V86.2054H89.5558V20.9189H24.1631ZM79.7342 30.7035V76.3998H33.9635V30.7035H79.7342Z" fill="#263238"/>
<path d="M69.9123 40.4883H43.7637V66.5944H69.9123V40.4883Z" fill="#263238"/>
<path d="M5.51311 66.4254C5.51311 50.9684 5.51311 35.5113 5.51311 20.0543C5.51311 15.7314 6.23125 11.6404 9.18828 8.24537C12.4833 4.44965 17.0244 2.97353 21.9247 2.97353C30.3522 2.97353 38.7586 2.97353 47.1862 2.97353C55.0435 2.97353 62.9007 2.97353 70.758 2.97353C72.6378 2.97353 72.6378 0.0634766 70.758 0.0634766C54.6633 0.0634766 38.5686 0.0634766 22.4738 0.0634766C18.334 0.0634766 14.3842 0.67501 10.8358 2.99462C5.63984 6.38968 2.70393 12.0833 2.59832 18.2197C2.47159 25.8533 2.59832 33.4869 2.59832 41.1206C2.59832 49.5555 2.59832 57.9905 2.59832 66.4254C2.59832 68.3022 5.51311 68.3022 5.51311 66.4254Z" fill="#505050"/>
<path d="M66.4699 291.027C50.9877 291.027 35.5055 291.027 20.0234 291.027C15.6934 291.027 11.5958 290.31 8.19521 287.358C4.39331 284.068 2.91479 279.534 2.91479 274.642C2.91479 266.228 2.91479 257.835 2.91479 249.422C2.91479 241.577 2.91479 233.733 2.91479 225.888C2.91479 224.011 0 224.011 0 225.888C0 241.957 0 258.025 0 274.094C0 278.227 0.612529 282.17 2.93591 285.713C6.3365 290.879 12.0394 293.81 18.1858 293.916C25.8318 294.042 33.4779 293.916 41.1239 293.916C49.5726 293.916 58.0213 293.916 66.4699 293.916C68.3498 293.937 68.3498 291.027 66.4699 291.027Z" fill="#505050"/>
<path d="M290.022 225.424C290.022 240.881 290.022 256.338 290.022 271.795C290.022 276.118 289.304 280.209 286.347 283.604C283.052 287.4 278.511 288.876 273.61 288.876C265.183 288.876 256.776 288.876 248.349 288.876C240.492 288.876 232.634 288.876 224.777 288.876C222.897 288.876 222.897 291.786 224.777 291.786C240.872 291.786 256.967 291.786 273.061 291.786C277.201 291.786 281.151 291.175 284.699 288.855C289.874 285.46 292.81 279.766 292.916 273.63C293.042 265.996 292.916 258.363 292.916 250.729C292.916 242.294 292.916 233.859 292.916 225.424C292.937 223.547 290.022 223.547 290.022 225.424Z" fill="#505050"/>
<path d="M225.622 2.97352C241.104 2.97352 256.586 2.97352 272.068 2.97352C276.398 2.97352 280.496 3.69049 283.896 6.64272C287.698 9.93235 289.177 14.4661 289.177 19.3584C289.177 27.7723 289.177 36.165 289.177 44.5789C289.177 52.4234 289.177 60.2679 289.177 68.1124C289.177 69.9892 292.092 69.9892 292.092 68.1124C292.092 52.0438 292.092 35.9752 292.092 19.9067C292.092 15.7736 291.479 11.8302 289.156 8.28754C285.755 3.12113 280.052 0.18999 273.906 0.0845533C266.26 -0.0419709 258.614 0.0845533 250.968 0.0845533C242.519 0.0845533 234.07 0.0845533 225.622 0.0845533C223.742 0.0634659 223.742 2.97352 225.622 2.97352Z" fill="#505050"/>
</svg>
