<svg width="224" height="146" viewBox="0 0 224 146" fill="none" xmlns="http://www.w3.org/2000/svg">
<path d="M1.5 9C1.5 4.85786 4.85786 1.5 9 1.5H215C219.142 1.5 222.5 4.85787 222.5 9V137C222.5 141.142 219.142 144.5 215 144.5H9.00001C4.85787 144.5 1.5 141.142 1.5 137V9Z" fill="#E2E2E2" stroke="white" stroke-width="3"/>
<path d="M102.935 40C101.633 40 100.355 40.3463 99.2327 41.0028C98.1106 41.6593 97.1855 42.6023 96.5532 43.7339L94.344 47.6865H87.8778C85.2581 47.6865 82.7456 48.7213 80.8932 50.5632C79.0407 52.4051 78 54.9033 78 57.5081V86.546C78 89.1508 79.0407 91.649 80.8932 93.4909C82.7456 95.3328 85.2581 96.3676 87.8778 96.3676H107.197C106.62 94.9915 106.185 93.5608 105.898 92.0973H87.8778C86.3971 92.0973 84.977 91.5125 83.93 90.4714C82.8829 89.4303 82.2947 88.0183 82.2947 86.546V57.5081C82.2947 56.0358 82.8829 54.6238 83.93 53.5827C84.977 52.5416 86.3971 51.9568 87.8778 51.9568H96.871L100.307 45.8076C100.567 45.3416 100.948 44.9533 101.41 44.683C101.872 44.4127 102.399 44.2702 102.935 44.2703H114.909C115.445 44.2702 115.971 44.4127 116.434 44.683C116.896 44.9533 117.277 45.3416 117.537 45.8076L120.973 51.9568H129.966C131.447 51.9568 132.867 52.5416 133.914 53.5827C134.961 54.6238 135.549 56.0358 135.549 57.5081V66.9881C137.064 67.5433 138.504 68.259 139.844 69.113V57.5081C139.844 54.9033 138.803 52.4051 136.951 50.5632C135.098 48.7213 132.586 47.6865 129.966 47.6865H123.5L121.291 43.7339C120.658 42.6023 119.733 41.6593 118.611 41.0028C117.489 40.3463 116.211 40 114.909 40H102.935Z" fill="white"/>
<path d="M108.921 57.0811C111.801 57.081 114.607 57.98 116.946 59.6512C119.284 61.3224 121.035 63.6814 121.953 66.3954C120.553 66.7729 119.208 67.2836 117.933 67.9105C117.431 66.3367 116.521 64.9222 115.295 63.8095C114.068 62.6968 112.568 61.9251 110.946 61.5721C109.324 61.2192 107.637 61.2975 106.055 61.7991C104.474 62.3008 103.053 63.208 101.936 64.4296C100.819 65.6511 100.045 67.1437 99.6929 68.7571C99.3408 70.3705 99.4224 72.0476 99.9297 73.6196C100.437 75.1916 101.352 76.603 102.582 77.7115C103.813 78.82 105.315 79.5865 106.938 79.9339C106.433 81.2525 106.05 82.6327 105.805 84.0589C102.515 83.302 99.6211 81.3675 97.6744 78.6245C95.7277 75.8815 94.8647 72.522 95.2499 69.1867C95.6352 65.8515 97.2418 62.7739 99.7632 60.5412C102.285 58.3085 105.545 57.0768 108.921 57.0811Z" fill="white"/>
<path d="M146.715 87.8273C146.715 98.2041 138.255 106.616 127.819 106.616C117.382 106.616 108.922 98.2041 108.922 87.8273C108.922 77.4505 117.382 69.0381 127.819 69.0381C138.255 69.0381 146.715 77.4505 146.715 87.8273ZM129.536 77.5786C129.536 77.1256 129.356 76.6911 129.033 76.3708C128.711 76.0505 128.274 75.8705 127.819 75.8705C127.363 75.8705 126.926 76.0505 126.604 76.3708C126.282 76.6911 126.101 77.1256 126.101 77.5786V86.1192H117.511C117.056 86.1192 116.619 86.2991 116.297 86.6195C115.974 86.9398 115.793 87.3743 115.793 87.8273C115.793 88.2803 115.974 88.7148 116.297 89.0351C116.619 89.3554 117.056 89.5354 117.511 89.5354H126.101V98.0759C126.101 98.529 126.282 98.9634 126.604 99.2838C126.926 99.6041 127.363 99.7841 127.819 99.7841C128.274 99.7841 128.711 99.6041 129.033 99.2838C129.356 98.9634 129.536 98.529 129.536 98.0759V89.5354H138.126C138.582 89.5354 139.018 89.3554 139.341 89.0351C139.663 88.7148 139.844 88.2803 139.844 87.8273C139.844 87.3743 139.663 86.9398 139.341 86.6195C139.018 86.2991 138.582 86.1192 138.126 86.1192H129.536V77.5786Z" fill="white"/>
</svg>
